PathFileType	4	(X/Y/Z)	C:/Users/beibeiliu/ov580/test_trc/User2\sequence.11_training_dense_left.trc
DataRate	CameraRate	NumFrames	NumMarkers	Units	OrigDataRate	OrigDataStartFrame	OrigNumFrames
120	120	24	19	mm	120	184	366
Frame#	Time	ThumbCMC			ThumbMCP			ThumbIP			ThumbTip			IndexMCP			IndexPIP			IndexTip			MiddleMCP			MiddlePIP			MiddleTip			RingMCP			RingPIP			RingTip			PinkyMCP			PinkyPIP			PinkyTip			BackHand1			BackHand2			BackHand3	
		X0	Y0	Z0	X1	Y1	Z1	X2	Y2	Z2	X3	Y3	Z3	X4	Y4	Z4	X5	Y5	Z5	X6	Y6	Z6	X7	Y7	Z7	X8	Y8	Z8	X9	Y9	Z9	X10	Y10	Z10	X11	Y11	Z11	X12	Y12	Z12	X13	Y13	Z13	X14	Y14	Z14	X15	Y15	Z15	X16	Y16	Z16	X17	Y17	Z17	X18	Y18	Z18	
183	1.525	-297.043	17.2137	151.627	-318.832	38.3408	128.539	-336.871	48.17	100.593	-335.032	40.8785	71.3521	-340.873	-38.9272	109.442	-369.405	-41.4717	89.3388	-381.131	-32.2818	64.2843	-320.144	-56.4445	94.1953	-343.926	-65.2805	61.4696	-353.144	-52.5608	29.8931	-299.591	-56.7654	80.0391	-313	-62.4847	50.0845	-325.891	-47.852	25.6167	-268.084	-46.1394	70.0726	-280.223	-44.6136	41.7111	-288.88	-40.4211	18.7354	-267.416	-38.6854	126.491	-245.626	-34.3448	149.104	-283.978	-24.4938	153.09	
184	1.53333	-297.597	20.9109	151.507	-314.022	42.6905	129.311	-330.017	51.7611	100.624	-333.109	48.6591	74.8306	-343.818	-31.4275	114.073	-369.345	-33.4885	96.393	-381.707	-25.7953	67.4431	-330.023	-54.3901	95.2585	-352.667	-58.3551	71.5934	-362.375	-46.3865	38.0285	-307.473	-57.9892	81.4143	-323.236	-59.2516	56.9973	-334.351	-44.3413	27.2768	-276.967	-49.4442	71.0476	-288.764	-47.8377	44.4402	-293.985	-40.5985	20.0603	-271.189	-41.8802	126.813	-249.57	-32.9411	150.545	-288.122	-23.3287	153.702	
185	1.54167	-294.722	24.37	152.198	-312.215	44.2706	128.215	-330.451	54.5543	99.4108	-331.581	46.9538	72.8416	-350.249	-27.2605	117.098	-373.038	-28.5575	99.1395	-384.64	-19.014	70.7875	-337.736	-49.1171	103.741	-357.251	-55.0627	75.0551	-367.187	-42.5972	42.7256	-312.413	-53.6962	88.408	-331.575	-57.6852	64.4693	-341.7	-41.6514	34.6043	-284.235	-48.5741	78.1261	-295.048	-49.3411	45.233	-304.533	-40.2779	25.0613	-275.986	-41.7709	129.458	-255.963	-34.0593	150.645	-290.825	-20.3841	155.892	
186	1.55	-294.409	28.749	153.009	-309.365	48.0344	126.06	-326.29	61.2623	98.264	-330.14	52.9639	71.4722	-349.892	-20.3096	120.847	-379.838	-20.6802	99.3905	-388.259	-11.4657	74.7925	-338.068	-45.6433	107.074	-366.726	-49.5535	79.3141	-374.828	-38.6641	47.1698	-323.622	-53.0772	91.0255	-338.878	-56.9079	64.7674	-347.748	-40.1878	35.1633	-290.178	-53.2927	75.9045	-304.563	-50.65	52.3933	-317.11	-39.529	27.5714	-275.611	-43.2058	129.569	-257.801	-36.8572	152.616	-290.426	-16.159	159.691	
187	1.55833	-289.037	27.7662	149.324	-303.017	48.2064	124.212	-321.075	62.7507	94.6789	-329.327	54.7681	68.1491	-356.371	-13.8668	123.058	-381.602	-10.6984	108.537	-392.58	0.722822	74.9657	-350.037	-38.0842	111.756	-372.763	-43.5877	84.4681	-381.1	-31.422	53.1491	-332.076	-49.0596	96.2506	-349.456	-50.3002	71.8425	-356.213	-37.6528	44.0578	-299.18	-54.1678	79.4052	-312.763	-52.8342	53.5253	-323.668	-41.3963	30.4688	-287.378	-39.3317	131.263	-260.073	-37.4907	150.827	-292.858	-17.6877	156.955	
188	1.56667	-287.468	31.7577	147.789	-300.74	53.0251	119.894	-317.187	64.4047	90.4975	-325.177	53.7977	64.2241	-358.335	-3.3713	127.454	-384.696	2.10525	112.146	-394.875	10.6402	79.2225	-351.116	-31.9473	115.404	-380.991	-30.8284	91.5548	-390.691	-16.8686	54.8948	-337.836	-46.1158	99.307	-357.969	-46.0723	74.5152	-365.339	-28.4361	46.252	-311.972	-52.0872	83.2666	-322.473	-52.8154	59.2394	-331.902	-43.4208	35.1043	-292.283	-43.3102	132.685	-263.098	-36.9167	155.175	-296.786	-13.8655	158.308	
189	1.575	-286.377	33.7467	145.042	-296.978	49.8367	116.015	-310.824	66.9727	87.5736	-323.987	57.9856	59.9396	-358.579	7.1946	131.942	-387.928	13.5514	114.669	-398.282	23.0846	85.9974	-358.937	-21.6418	120.217	-387.329	-21.7784	96.0368	-396.325	-9.98615	59.9718	-348.277	-37.1749	104.964	-368.195	-39.2794	77.6379	-375.834	-22.1039	50.0549	-320.608	-51.3921	87.3988	-334.299	-47.9109	64.909	-345.55	-39.4367	38.8882	-296.262	-36.8497	139.477	-268.824	-37.3026	157.434	-297.245	-6.42302	160.042	
190	1.58333	-286.726	38.7001	144.926	-297.199	56.1332	113.176	-311.139	68.5783	83.9319	-322.738	60.3489	59.5663	-360.209	12.2528	131.972	-387.605	17.1083	115.37	-400.634	30.1464	85.3125	-364.265	-15.5814	122.295	-394.344	-10.7311	98.4207	-401.832	-3.8823	64.6875	-348.701	-36.394	106.432	-373.38	-31.8938	85.3702	-381.465	-20.8356	53.8822	-323.096	-46.2862	93.2436	-342.361	-45.5282	67.4113	-355.856	-37.8243	42.0083	-303.234	-36.5391	135.475	-276.07	-36.4078	154.632	-297.57	-2.36243	163.051	
191	1.59167	-288.546	37.4363	143.507	-294.151	57.278	115.891	-307.568	69.1914	86.6335	-321.298	59.2464	61.1355	-364.229	18.1155	132.728	-391.945	26.7909	117.058	-402.321	34.5382	88.3585	-367.516	-10.2597	124.585	-395.738	-8.88465	102.108	-406.272	3.50164	66.0801	-357.861	-27.3539	110.854	-378.468	-28.4756	86.4213	-386.401	-16.2644	57.6271	-331.189	-41.3597	95.3147	-348.118	-44.0169	71.9774	-361.661	-32.9979	46.3328	-307.282	-33.7811	139.321	-280.937	-34.1138	156.674	-299.27	-3.3104	162.019	
192	1.6	-285.594	43.0583	144.606	-294.769	60.4587	113.492	-308.546	69.412	83.9044	-321.85	63.8741	56.7497	-367.352	25.7313	135.15	-390.575	31.85	119.294	-403.185	47.3097	90.0335	-367.969	-4.34941	126.696	-397.686	-1.88873	103.175	-408.918	8.9485	70.409	-360.085	-24.9287	111.345	-383.655	-22.2539	89.7888	-392.549	-5.53836	61.4884	-333.997	-41.7635	96.5153	-352.995	-41.7223	74.4797	-367.545	-34.1955	50.5326	-307.903	-29.0947	141.514	-280.4	-28.4897	160.548	-301.954	2.22892	163.367	
193	1.60833	-285.138	43.9659	146.809	-293.066	57.8784	113.379	-308.489	70.7634	82.2855	-320.177	68.3861	58.0721	-369.539	31.4052	136.197	-392.164	42.419	120.491	-404.878	50.3939	90.8196	-375.262	2.06928	126.744	-400.772	4.80211	105.331	-410.986	15.1706	70.9852	-364.827	-21.4045	112.907	-387.363	-15.9183	92.5795	-395.494	-4.54491	66.3541	-338.489	-34.4347	100.887	-358.799	-37.845	76.8413	-374.711	-29.1082	51.0687	-314.871	-27.5476	140.307	-286.039	-32.643	160.858	-305.691	5.77899	164.813	
194	1.61667	-287.7	42.134	143.5	-292.62	60.6744	112.621	-302.895	70.5586	83.5487	-318.662	64.9879	59.0263	-368.325	35.6267	135.923	-393.041	50.5268	118.776	-402.695	60.6686	95.6411	-374.989	8.77991	129.097	-404.245	14.6694	105.237	-412.927	22.5487	74.0125	-364.334	-15.8858	116.59	-388.978	-12.127	96.7814	-399.549	4.8309	65.5745	-342.493	-33.2495	101.948	-365.126	-31.2887	77.6469	-379.156	-23.8721	55.3476	-315.719	-25.3166	143.022	-288.102	-28.7516	160.034	-305.058	5.02732	165.816	
195	1.625	-281.551	41.82	143.469	-286.818	57.5854	111.731	-300.299	72.1986	80.5969	-311.009	69.1574	56.3225	-363.074	43.923	137.291	-389.533	60.1906	118.82	-398.784	71.3196	93.8017	-376.395	15.888	130.507	-402.702	21.8447	110.513	-414.269	37.1357	75.0729	-367.145	-10.7359	117.377	-392.183	-4.86156	98.9366	-401.824	9.8935	71.2112	-349.345	-28.5056	103.351	-369.076	-26.9519	84.8198	-384.398	-16.4699	59.2119	-320.768	-21.155	144.87	-295.048	-26.3004	160.576	-310.102	8.41386	164.513	
196	1.63333	-279.266	38.1635	140.466	-280.204	54.4224	109.423	-289.266	69.8975	77.8549	-308.212	69.3358	50.875	-357.446	55.218	136.765	-378.45	70.5879	120.901	-391.309	83.3701	93.1119	-372.02	25.7718	132.399	-402.452	37.7564	109.644	-412.792	54.5169	78.5153	-371.445	1.13269	120.841	-395.22	14.2713	101.918	-403.388	26.4371	74.6511	-354.151	-20.9758	107.589	-377.298	-18.314	88.1466	-390.648	-9.61752	63.9045	-324.216	-18.5713	145.163	-298.764	-28.2372	163.194	-304.779	13.2246	166.185	
197	1.64167	-271.731	39.406	137.994	-271.794	49.956	105.387	-283.053	64.3816	72.7204	-296.356	67.2449	47.8857	-348.114	67.9484	134.541	-366.907	87.0574	116.274	-374.542	99.5725	92.787	-368.194	38.3169	132.514	-391.825	58.3974	115.014	-405.165	72.2271	80.4097	-369.878	15.814	123.82	-391.61	29.8443	106.52	-400.961	40.0444	77.3749	-358.967	-10.6553	111.49	-381.383	-4.48904	92.2684	-395.551	5.42864	72.9132	-326.9	-9.56031	146.736	-299.634	-25.3973	163.565	-305.235	15.6319	163	
198	1.65	-260.274	33.2488	136.089	-264.19	42.9348	101.633	-267.737	56.8417	70.7218	-285.498	61.3087	45.7599	-331.386	73.8438	131.549	-344.357	100.539	115.266	-355.584	111.005	88.195	-360.575	55.5627	131.567	-382.309	75.7259	111.21	-390.392	90.7197	80.9138	-365.186	27.7373	124.811	-387.142	45.2759	105.861	-392.013	60.6263	81.065	-358.691	-0.8238	115.145	-382.008	10.3461	97.584	-395.006	22.2031	77.7928	-329.679	-1.89156	147.919	-304.241	-19.0429	165.158	-297.618	18.3966	164.464	
199	1.65833	-257.611	23.9516	131.907	-255.593	35.0849	98.1357	-257.701	49.0103	64.0063	-270.903	50.786	43.6113	-315.554	81.731	126.035	-321.672	105.392	108.462	-326.692	119.775	80.6118	-341.222	69.6934	130.408	-359.233	90.619	111.641	-370.527	104.492	81.2896	-353.864	44.4758	124.498	-370.618	63.4963	106.657	-378.637	77.0369	77.2848	-361.072	15.1987	116.167	-374.923	28.7265	100.962	-388.887	39.5839	79.9414	-323.261	9.05238	148.671	-306.328	-14.2986	168.315	-290.355	26.477	162.113	
200	1.66667	-248.838	15.5119	129.103	-245.016	23.4402	95.2201	-244.74	34.4823	61.1295	-262.225	38.9478	40.9571	-295.363	83.004	119.364	-295.257	105.517	102.17	-298.78	120.057	72.5704	-324.675	70.8426	126.809	-335.536	103.679	105.412	-348.013	113.068	75.3823	-337.725	52.9514	122.867	-354.714	73.8186	105.849	-359.063	89.0826	74.9202	-349.432	25.1811	117.447	-366.093	42.2525	100.026	-379.805	57.0423	79.4118	-317.936	10.6229	150.357	-305.568	-11.1294	170.3	-283.018	19.6943	161.561	
201	1.675	-239.732	4.77371	126.972	-230.605	7.29719	94.2709	-233.045	17.6074	62.526	-247.039	24.7649	38.0665	-275.561	74.7649	112.865	-273.803	101.912	91.8049	-274.643	112.577	66.9895	-302.703	74.9266	120.992	-313.69	104.331	97.4224	-323.296	116.544	68.6799	-327.848	59.2559	118.962	-338.751	80.784	97.5412	-342.133	92.8048	66.7293	-341.518	32.4723	115.89	-356.282	52.1672	95.6314	-362.796	63.9954	75.4126	-310.978	18.1413	147.468	-297.488	-7.01361	171.273	-271.633	18.2605	159.223	
202	1.68333	-229.235	-9.42286	128.624	-225.965	-2.07248	93.7239	-222.386	5.02687	60.8582	-231.361	11.9031	34.7388	-251.802	64.515	107.351	-246.179	92.2896	86.1132	-250.152	103.064	59.4227	-280.955	69.919	113.596	-286.382	101.975	89.1458	-298.204	111.801	60.119	-303.635	59.5774	112.19	-311.835	80.7391	93.7692	-315.93	90.9311	62.5151	-325.503	37.6092	109.601	-335.93	53.5371	93.3174	-343.334	68.4244	70.2642	-295.607	19.0435	142.317	-288.593	-2.54201	168.902	-260.344	16.4907	151.236	
203	1.69167	-221.508	-14.1036	125.921	-213.629	-12.7681	90.876	-210.211	-6.48491	57.6677	-222.64	0.809948	36.3871	-239.466	58.8484	101.845	-228.734	81.213	82.9361	-231.192	94.3776	53.3652	-266.88	65.3325	107.747	-267.689	95.6533	84.0807	-272.85	107.126	52.2555	-293.451	56.3602	107.67	-296.367	81.1555	83.6393	-301.36	89.9834	53.1129	-312.089	33.4572	107.991	-322.306	56.4039	87.1834	-325.889	67.5442	65.9326	-288.765	18.3217	139.244	-285.842	-3.5324	168.022	-247.664	12.5104	148.527	
204	1.7	-220.592	-19.0909	126.349	-209.6	-20.3192	92.199	-207.694	-17.955	61.5234	-216.688	-8.19978	32.6247	-226.156	54.4686	94.9871	-223.181	75.7636	73.7126	-220.072	86.3235	43.9857	-259.944	62.6412	103.028	-258.971	89.7617	80.9594	-265.77	102.063	47.1178	-281.454	54.0495	103.643	-286.61	78.2156	79.6441	-290.035	85.4389	52.4918	-305.566	32.3973	106.384	-315.412	54.1339	85.8182	-322.035	66.2629	62.6601	-278.285	16.6936	137.906	-275.818	-2.33615	164.85	-243.287	9.71049	148.465	
205	1.70833	-215.654	-23.0398	123.033	-209.533	-28.2751	92.9252	-208.008	-22.497	56.1595	-214.153	-18.8372	30.6118	-228.252	46.0017	90.5564	-216.95	67.4718	66.3402	-218.619	78.7656	39.0139	-254.187	58.3297	97.4408	-257.847	85.5533	73.4756	-262.185	97.482	38.8554	-283.149	53.9737	100.208	-286.931	75.0838	76.76	-285.071	81.6168	48.97	-303.229	34.3791	103.459	-314.921	51.4011	84.2255	-317.91	63.8977	62.486	-276.485	16.8559	136.619	-278.142	-2.37329	164.264	-243.019	7.95904	145.177	
206	1.71667	-221.202	-23.8563	118.962	-216.016	-30.6854	88.156	-217.088	-29.0805	53.787	-224.781	-24.8165	24.7575	-237.601	44.2871	82.7054	-227.29	63.6186	56.276	-227.786	73.8658	30.211	-260.256	55.9929	90.6723	-266.595	81.2882	66.6234	-269.525	92.5435	35.1699	-289.075	47.5021	98.6526	-292.87	69.9079	75.1272	-300.037	77.2202	43.2023	-309.23	25.9573	105.544	-320.909	47.9649	85.1175	-327.619	61.9503	60.273	-278.86	15.4586	134.693	-277.35	-2.36501	165.88	-242.866	8.00157	138.318	
